<svg width="299" height="35" viewBox="0 0 299 35" fill="none" xmlns="http://www.w3.org/2000/svg">
<g clip-path="url(#clip0)">
<path d="M146.2 28.4L149.3 20.5L152.4 28.4H146.2ZM147.9 18.4L141.5 34.7H143.9L145.5 30.5H153.3L154.9 34.7H157.3L150.8 18.4H147.9V18.4ZM170.4 26.1H161.4V20.5H170.6C172.6 20.5 173.7 21.3 173.7 23.1C173.8 24.8 172.7 26.1 170.4 26.1ZM176.1 22.7C176.1 19.9 174 18.4 171 18.4H159.1V34.7H161.4V28.2H171.6C172.9 28.2 173.7 28.5 173.7 29.8V34.7H176V29.9C176 28 175.3 26.9 173.3 26.8C175 26.2 176.1 24.8 176.1 22.7ZM240 18.4H237.7V25.5H266.3V23.4H240.1V18.4H240ZM215.7 25.5H202.5V18.4H200.2V34.7H202.5V27.6H215.7V34.7H218V18.4H215.7V25.5ZM240 27.6H237.7V34.7H266.3V32.6H240.1V27.6H240ZM177.7 20.5H183.6V34.7H185.9V20.5H191.6V18.4H177.7V20.5ZM224.8 28.4L227.9 20.5L231 28.4H224.8ZM226.4 18.4L220 34.7H222.4L224 30.5H231.8L233.4 34.7H235.8L229.4 18.4H226.4V18.4ZM101.4 18.5H99.0999V34.8H101.4V18.5ZM43.8999 34.7V20.6H52.8999V18.5H32.3999V20.6H41.5999V34.8H43.8999V34.7V34.7ZM96.7999 23.4H70.5999V18.4H68.2999V25.5H96.8999L96.7999 23.4ZM120.7 18.5H117.6V32L106.7 18.5H103.6V34.8H105.9V21.2L116.7 34.7H119.8V21.2L130.7 34.7H133.8V18.5H131.5V32L120.7 18.5ZM58.6999 20.6L61.7999 28.5H55.6999L58.6999 20.6ZM54.7999 30.6H62.5999L64.1999 34.8H66.5999L60.1999 18.5H57.1999L50.7999 34.8H53.1999L54.7999 30.6ZM96.7999 32.6H70.5999V27.6H68.2999V34.7H96.7999V32.6Z" fill="#1E1E1E"/>
<path d="M133.8 9.5H129V7.4H133.7C137.8 7.4 139.9 5 139.9 1.4V0.4H137.6V1.2C137.6 3.9 136.3 5.4 133.9 5.4H129.1V0.4H126.8V16.7H129.1V11.7H134.1C136.5 11.7 137.8 13.2 137.8 15.9V16.7H140.1V15.7C139.9 11.9 137.9 9.5 133.8 9.5ZM154.3 10.8V0.3H152V10.5C152 13.2 150.7 14.7 148.3 14.7H148.1C145.7 14.7 144.4 13.2 144.4 10.5V0.3H142.1V10.8C142.1 14.4 144.1 16.8 148.3 16.8C152.2 16.8 154.3 14.3 154.3 10.8ZM208.9 16.6H211.2V0.3H208.9V16.6ZM277.2 13.8L269.6 0.3H266.3V16.6H268.6V3.1L276.2 16.6H279.5V0.3H277.2V13.8ZM283.9 14.5V9.3H297V7.2H283.9V2.4H298.4V0.3H281.6V16.6H298.6V14.5C298.6 14.5 283.9 14.5 283.9 14.5ZM261.7 5.3H236.1V2.4H261.7V5.3ZM264.1 0.3H233.9V7.4H264.1V0.3ZM261.7 14.5H236.1V11.6H261.7V14.5ZM264.1 9.5H233.9V16.6H264.1V9.5ZM231.5 16.6V0.3H229.2V7.4H216V0.3H213.7V16.6H216V9.5H229.2V16.6H231.5ZM169.7 16.6V0.3H167.3V13.8L159.7 0.3H156.4V16.6H158.7V3.1L166.3 16.6H169.7ZM197.3 2.4H206.3V0.3H185.8V2.4H195V16.6H197.3V2.4ZM178.5 14.7H178.3C175.9 14.7 174.1 13.5 174.1 11.3H171.8C171.9 14.8 174.4 16.8 178.3 16.8C181.9 16.8 184.2 15 184.2 12.2C184.2 9.5 182.6 8.1 179.8 7.5L177.2 7C175.8 6.7 175 6 175 4.7C175 3.3 176.4 2.2 178.4 2.2H178.6C180.6 2.2 182.1 3.4 182.2 5.2H184.5C184.4 2 182.1 0.1 178.5 0.1C175 0.1 172.7 2.2 172.7 4.7C172.7 7.3 174.2 8.7 176.8 9.3L179.4 9.8C181.1 10.1 182 10.9 182 12.2C181.9 13.6 180.7 14.7 178.5 14.7ZM69 0.1H66.7V16.4H69V0.1ZM11.5 16.3V2.2H20.5V0.1H0V2.2H9.2V16.4L11.5 16.3ZM64.5 5H38.2V0H35.9V7.1H64.5V5ZM88.3 0.1H85.2V13.6L74.4 0.1H71.3V16.4H73.6V2.9L84.5 16.4H87.6V2.9L98.5 16.4H101.6V0.1H99.3V13.6L88.3 0.1ZM26.3 2.2L29.4 10.1H23.3L26.3 2.2ZM22.4 12.1H30.2L31.8 16.3H34.2L27.8 0.1H24.8L18.4 16.4H20.8L22.4 12.1ZM64.4 14.2H38.2V9.2H35.9V16.3H64.5V14.2H64.4V14.2ZM111.2 2.2L114.3 10.1H108.2L111.2 2.2ZM107.4 12.1H115.2L116.8 16.3H119.2L112.8 0H109.8L103.4 16.3H105.8L107.4 12.1Z" fill="#1E1E1E"/>
</g>
<defs>
<clipPath id="clip0">
<rect width="298.6" height="34.8" fill="white"/>
</clipPath>
</defs>
</svg>
