<?xml version="1.0" encoding="utf-8"?>
<!-- Generator: Adobe Illustrator 23.0.1, SVG Export Plug-In . SVG Version: 6.00 Build 0)  -->
<svg version="1.1" id="Layer_1" xmlns="http://www.w3.org/2000/svg" xmlns:xlink="http://www.w3.org/1999/xlink" x="0px" y="0px"
	 viewBox="0 0 16 16" style="enable-background:new 0 0 16 16;" xml:space="preserve">
<g>
	<path d="M9.1,1.3c-0.2-0.1-0.5,0-0.7,0.1L5,5.1H1.4C1,5.1,0.8,5.4,0.8,5.7v4.6c0,0.3,0.3,0.6,0.6,0.6H5l3.5,3.6
		c0.1,0.1,0.3,0.2,0.4,0.2c0.1,0,0.2,0,0.2,0c0.2-0.1,0.4-0.3,0.4-0.6V1.9C9.5,1.6,9.4,1.4,9.1,1.3z M8.3,12.6L5.7,9.9
		C5.6,9.8,5.4,9.7,5.2,9.7H2V6.3h3.3c0.2,0,0.3-0.1,0.4-0.2l2.6-2.7V12.6z"/>
	<path d="M10.5,3.3v1.2c2,0,3.6,1.6,3.6,3.6c0,2-1.6,3.6-3.6,3.6v1.2c2.6,0,4.8-2.1,4.8-4.8C15.2,5.5,13.1,3.3,10.5,3.3z"/>
	<path d="M13.2,8.1c0-1.5-1.2-2.7-2.7-2.7v1.2c0.8,0,1.5,0.7,1.5,1.5s-0.7,1.5-1.5,1.5v1.2C12,10.8,13.2,9.6,13.2,8.1z"/>
</g>
</svg>
