<?xml version="1.0" encoding="utf-8"?>
<!-- Generator: Adobe Illustrator 23.0.1, SVG Export Plug-In . SVG Version: 6.00 Build 0)  -->
<svg version="1.1" id="Layer_1" xmlns="http://www.w3.org/2000/svg" xmlns:xlink="http://www.w3.org/1999/xlink" x="0px" y="0px"
	 viewBox="0 0 16 16" style="enable-background:new 0 0 16 16;" xml:space="preserve">
<path d="M14.1,6.9L8.3,2.2c-0.2-0.1-0.4-0.1-0.6,0L1.8,6.9C1.6,7,1.6,7.2,1.6,7.4c0.1,0.2,0.3,0.3,0.5,0.3h0.5v5.6
	c0,0.3,0.2,0.5,0.5,0.5h10c0.3,0,0.5-0.2,0.5-0.5V7.7h0.3c0.2,0,0.4-0.1,0.5-0.3C14.3,7.2,14.3,7,14.1,6.9z M8,3.2l4.4,3.5H3.5
	L8,3.2z M12.5,12.8h-9V7.7h9V12.8z"/>
</svg>
