<?xml version="1.0" encoding="utf-8"?>
<!-- Generator: Adobe Illustrator 23.0.1, SVG Export Plug-In . SVG Version: 6.00 Build 0)  -->
<svg version="1.1" id="Layer_1" xmlns="http://www.w3.org/2000/svg" xmlns:xlink="http://www.w3.org/1999/xlink" x="0px" y="0px"
	 viewBox="0 0 16 16" style="enable-background:new 0 0 16 16;" xml:space="preserve">
<path d="M15.3,7.4L8.4,1.1c-0.2-0.2-0.6-0.2-0.8,0L0.7,7.4C0.5,7.5,0.5,7.8,0.6,8c0.1,0.2,0.3,0.4,0.6,0.4H3v6C3,14.7,3.2,15,3.6,15
	h8.9c0.3,0,0.6-0.3,0.6-0.6v-6h1.8c0.2,0,0.5-0.2,0.6-0.4C15.5,7.8,15.5,7.5,15.3,7.4z M11.8,13.8H4.2V8.4h7.7V13.8z M12.4,7.2H3.6
	H2.7L8,2.4l5.3,4.8H12.4z"/>
</svg>
