<?xml version="1.0" encoding="utf-8"?>
<!-- Generator: Adobe Illustrator 23.0.1, SVG Export Plug-In . SVG Version: 6.00 Build 0)  -->
<svg version="1.1" id="Layer_1" xmlns="http://www.w3.org/2000/svg" xmlns:xlink="http://www.w3.org/1999/xlink" x="0px" y="0px"
	 viewBox="0 0 16 16" style="enable-background:new 0 0 16 16;" xml:space="preserve">
<g>
	<path d="M4,13.3L4,13.3l-1,1h1.6c0.3,0,0.5-0.2,0.5-0.5v-1.6L4,13.3L4,13.3z"/>
	<path d="M13.5,3.8l-0.7,0.7c1.3,1.3,2.1,3,2.1,5c0,0.4,0,0.8-0.1,1.2h-0.4V9.4c0-0.7-0.6-1.3-1.3-1.3h-1.7c-0.3,0-0.5,0.2-0.5,0.5
		v5.3c0,0.3,0.2,0.5,0.5,0.5h1.7c0.7,0,1.3-0.6,1.3-1.3v-1.3h0.8c0.2,0,0.4-0.2,0.5-0.4c0.1-0.6,0.2-1.2,0.2-1.8
		C15.9,7.3,15,5.3,13.5,3.8z M13.5,13c0,0.2-0.2,0.3-0.3,0.3H12V9h1.2c0.2,0,0.3,0.1,0.3,0.3V13z"/>
	<path d="M12.7,2L12,2.7C10.8,2,9.5,1.6,8,1.6c-4.4,0-7.9,3.6-7.9,7.9c0,0.6,0.1,1.2,0.2,1.8c0.1,0.2,0.2,0.4,0.5,0.4h0.8V13v0.1
		l-0.5,0.4L2,14.4L13.5,2.8L12.7,2z M2.5,12.1c0-1,0-2.8,0-2.8C2.5,9.1,2.7,9,2.8,9H4v1.6L2.5,12.1z M5.1,9.6V8.5
		C5.1,8.2,4.9,8,4.6,8H2.9C2.2,8,1.6,8.6,1.6,9.3v1.3H1.2c-0.1-0.3-0.1-0.7-0.1-1.1c0-3.8,3.1-6.9,6.9-6.9c1.2,0,2.3,0.3,3.3,0.8
		L5.1,9.6z"/>
</g>
</svg>
