<?xml version="1.0" encoding="utf-8"?>
<!-- Generator: Adobe Illustrator 23.0.1, SVG Export Plug-In . SVG Version: 6.00 Build 0)  -->
<svg version="1.1" id="Layer_1" xmlns="http://www.w3.org/2000/svg" xmlns:xlink="http://www.w3.org/1999/xlink" x="0px" y="0px"
	 viewBox="0 0 16 16" style="enable-background:new 0 0 16 16;" xml:space="preserve">
<style type="text/css">
	.st0{display:none;fill:#FF5555;}
	.st1{fill:none;}
</style>
<path class="st0" d="M15.1,8.4c-0.2-1-0.7-2-1.4-2.8l-2.1-2.5l-0.7-1c-0.5-0.7-1.2-1-2-0.9l-4,0.4C4.5,1.6,4.1,1.8,3.9,2L2,4.4
	C1.8,4.6,1.7,5,1.8,5.3S2.1,6,2.4,6.1C3,6.5,3.7,6.5,3.9,6.5c0,0,0.1,0,0.1,0c0,0,0,0,0,0h0c0.8,0.2,1.6,0,2.2-0.6l0,0
	C6.4,5.7,6.7,5.6,7,5.6l0.7,0c0.5,0,0.9,0.3,1,0.8l0.5,1.4c0,0.1,0,0.2,0,0.2c0,0.3,0,0.8-0.2,1.4c-0.4,0.7-1.7,1.1-1.9,1.1
	c-0.1,0-0.1,0-0.3,0.1c-0.2,0-0.4,0-0.6,0l-0.1,0c-0.3-0.1-0.5-0.3-0.6-0.6L5.1,9.3C4.7,8.5,3.8,8,2.9,8.1l-0.3,0
	C2.3,8.2,2,8.3,1.8,8.6C1.7,8.8,1.6,9.1,1.7,9.4L2.4,12c0.1,0.4,0.8,1.2,2.2,2.4c0.3,0.2,1.2,0.5,1.2,0.5c0.7,0.2,1.4,0.2,2.1,0.2
	c1.2,0,2.4-0.2,3.6-0.7c2.8-1,3.5-3.7,3.6-5.2C15.1,9,15.1,8.8,15.1,8.4z M2.3,5.2c0-0.2,0-0.4,0.1-0.5l1.9-2.3
	c0.1-0.2,0.3-0.2,0.5-0.3l4-0.4c0.5,0,0.9,0.1,1.2,0.4C9.6,1.9,9.2,1.8,8.7,1.9L6,2.2C5.1,2.3,4.3,2.7,3.8,3.5L2.9,4.7
	c-0.2,0.3-0.2,0.7,0,1c-0.1,0-0.2-0.1-0.4-0.2C2.5,5.6,2.3,5.4,2.3,5.2z M14.6,9.2c-0.2,1.7-0.8,3.9-3.2,4.7
	c-1.8,0.7-3.6,0.8-5.4,0.4C5.6,14.3,5.1,14.1,5,14c-1.3-1.2-2-2-2-2.1L2.3,9.3l0,0c0-0.1,0-0.3,0.1-0.4c0.1-0.1,0.2-0.2,0.3-0.2
	l0.3,0c0.1,0,0.1,0,0.2,0c0.6,0,1.2,0.3,1.5,0.9l0.3,0.6c0.2,0.4,0.5,0.7,1,0.9L6,11c0.3,0.1,0.6,0.1,1,0c0.1,0,0.2,0,0.2,0
	c0.3,0,1.9-0.4,2.4-1.4c0.4-0.7,0.3-1.4,0.3-1.7c0-0.1,0-0.2-0.1-0.3L9.2,6.1C9,5.5,8.4,5,7.7,5L7,5c-0.5,0-0.9,0.1-1.2,0.5l0,0
	C5.3,5.9,4.7,6,4.1,5.9c-0.2,0-0.4-0.2-0.5-0.3C3.3,5.3,3.4,5.1,3.4,5l0.8-1.2c0.4-0.6,1-1,1.8-1.1l2.7-0.3c0.7-0.1,1.2,0.2,2.1,0.9
	c0,0,0.1,0.1,0.2,0.1l2.2,2.5c0.7,0.8,1.1,1.7,1.3,2.6C14.6,8.9,14.6,9.1,14.6,9.2z"/>
<g>
	<path class="st1" d="M4.1,3.9C4.5,3.5,4.8,3.1,5.5,3c1.2-0.3,2.7-0.6,3.9-0.8c0.3,0,0.6,0,0.8,0C10,2.1,9.9,2,9.7,1.9
		C9.4,1.7,9.1,1.6,8.8,1.6c-0.2,0-0.4,0-0.6,0.1L7.6,1.8c-1,0.3-1.8,0.5-3.1,0.7C3.8,2.7,2.4,4.3,2.3,5.1c0,0.2,0,0.5,0.2,0.6
		c0.1,0.1,0.2,0.1,0.4,0.1C3,5.4,3.3,4.8,4,4.1L4.1,3.9z"/>
	<path class="st1" d="M4.1,10.2C3.9,9.7,3.6,9.5,3.2,9.4c0,0-0.1,0-0.1,0c-0.3,0-0.5,0.1-0.6,0.2c-0.1,0.3,0.1,1.2,0.4,1.9L4.1,10.2
		L4.1,10.2z"/>
	<path d="M2.9,5.9c-0.1,0-0.3-0.1-0.4-0.1C2.3,5.6,2.3,5.3,2.3,5.1c0-0.8,1.5-2.4,2.2-2.5c1.2-0.3,2-0.5,3.1-0.7l0.6-0.2
		c0.2,0,0.4-0.1,0.6-0.1c0.3,0,0.6,0.1,0.9,0.3C9.9,2,10,2.1,10.2,2.2c0.5,0.1,0.9,0.3,1.3,0.7l0.4-0.4C11.5,2,11,1.3,10.3,0.8
		C9.6,0.4,8.8,0.3,7.9,0.5L7.3,0.7c-1,0.3-1.8,0.5-3,0.7C3.1,1.7,1.2,3.7,1.1,5.1c0,0.7,0.2,1.3,0.7,1.6C2.2,7,2.6,7.1,3.1,7.1
		c0,0,0,0,0.1,0C3,6.9,2.8,6.5,2.9,5.9z"/>
	<path d="M9,9.7c-0.6,0.6-1.4,1-2,1.1l-1,1c1.3,0.6,3.1-0.5,3.9-1.3c0.5-0.5,0.7-1.3,0.6-2.2c0-0.3-0.1-0.5-0.2-0.8l-1,1
		C9.3,9.1,9.2,9.5,9,9.7z"/>
	<path d="M13,4.8l-0.9,0.9c0.3,0.5,0.7,1,1.1,1.6c0.4,0.6,0.9,2.9-0.2,4.7c-1.1,1.9-3.7,2.7-7.6,2.4c-0.3,0-0.7-0.4-1.2-0.9
		l-0.8,0.8c0.7,0.7,1.3,1.2,1.9,1.2c0.6,0,1.1,0.1,1.6,0.1c4.3,0,6.3-1.6,7.1-3c1.3-2.2,0.7-5,0.1-5.9C13.8,5.9,13.4,5.3,13,4.8z"/>
	<path d="M10.6,3.8"/>
	<path d="M8.9,5.5"/>
	<path d="M13.5,1l-1.6,1.6l-0.4,0.4c-0.4-0.4-0.9-0.6-1.3-0.7c-0.3,0-0.5-0.1-0.8,0C8.1,2.4,6.7,2.7,5.5,3c-0.6,0.2-1,0.5-1.3,0.9
		L4,4.1C3.3,4.8,3,5.4,2.9,5.9C2.8,6.5,3,6.9,3.2,7.1c0,0,0,0,0,0c0.5,0.6,1.6,0.6,2.2,0.3C5.5,7.2,5.7,7.1,5.8,7
		c0.3-0.2,0.5-0.4,0.9-0.6c0.4-0.2,1-0.2,1.2-0.2c0,0,0.1,0.1,0.1,0.1l-3,3C4.6,8.6,3.8,8.2,2.9,8.2c-0.8,0-1.4,0.5-1.6,1
		C1.1,10,1.4,11.4,2,12.5l-1.4,1.4l0.8,0.8l1.3-1.3l0.8-0.8l1.4-1.4l0.9-0.9l3.1-3.1l0.9-0.9l1.5-1.5l0.3-0.3l0.9-0.9l0,0l2-2
		L13.5,1z M2.9,11.6c-0.3-0.7-0.5-1.6-0.4-1.9c0-0.1,0.3-0.2,0.6-0.2c0,0,0.1,0,0.1,0c0.4,0,0.7,0.3,0.9,0.8l0,0.1L2.9,11.6z
		 M8.9,5.5C8.8,5.4,8.7,5.3,8.5,5.2C8.1,4.9,6.9,5,6.2,5.3C5.8,5.5,5.4,5.8,5.1,6C5,6.1,4.8,6.3,4.7,6.4c-0.1,0.1-0.5,0.1-0.6,0
		c0,0-0.1-0.2,0.2-0.6c0.1-0.2,0.3-0.5,0.6-0.8L5,4.7c0.3-0.4,0.4-0.5,0.7-0.6C7,3.9,8.3,3.6,9.5,3.4c0.4-0.1,0.7,0,1.1,0.4L8.9,5.5
		z"/>
</g>
</svg>
