<?xml version="1.0" encoding="utf-8"?>
<!-- Generator: Adobe Illustrator 23.0.1, SVG Export Plug-In . SVG Version: 6.00 Build 0)  -->
<svg version="1.1" id="Layer_1" xmlns="http://www.w3.org/2000/svg" xmlns:xlink="http://www.w3.org/1999/xlink" x="0px" y="0px"
	 viewBox="0 0 16 16" style="enable-background:new 0 0 16 16;" xml:space="preserve">
<g>
	<path d="M14.8,13H1.2c-0.3,0-0.6-0.3-0.6-0.6V3.6C0.6,3.2,0.9,3,1.2,3h13.6c0.3,0,0.6,0.3,0.6,0.6v8.9C15.4,12.8,15.1,13,14.8,13z
		 M1.8,11.8h12.4V4.2H1.8V11.8z"/>
</g>
<g>
	<path d="M6.4,10.8c-0.1,0-0.2,0-0.3-0.1c-0.2-0.1-0.3-0.3-0.3-0.5V5.8c0-0.2,0.1-0.4,0.3-0.5c0.2-0.1,0.4-0.1,0.6,0l3.8,2.2
		c0.2,0.1,0.3,0.3,0.3,0.5s-0.1,0.4-0.3,0.5l-3.8,2.2C6.6,10.7,6.5,10.8,6.4,10.8z M7,6.9v2.3L9,8L7,6.9z"/>
</g>
</svg>
