<?xml version="1.0" encoding="utf-8"?>
<!-- Generator: Adobe Illustrator 23.0.1, SVG Export Plug-In . SVG Version: 6.00 Build 0)  -->
<svg version="1.1" id="Layer_1" xmlns="http://www.w3.org/2000/svg" xmlns:xlink="http://www.w3.org/1999/xlink" x="0px" y="0px"
	 viewBox="0 0 16 16" style="enable-background:new 0 0 16 16;" xml:space="preserve">
<g>
	<path d="M14.8,13.1H1.2c-0.4,0-0.7-0.3-0.7-0.7V3.6c0-0.4,0.3-0.7,0.7-0.7h13.6c0.4,0,0.7,0.3,0.7,0.7v8.9
		C15.5,12.8,15.2,13.1,14.8,13.1z M1.9,11.7h12.2V4.3H1.9V11.7z"/>
</g>
<g>
	<path d="M6.4,10.9c-0.1,0-0.2,0-0.4-0.1c-0.2-0.1-0.4-0.4-0.4-0.6V5.8c0-0.2,0.1-0.5,0.4-0.6c0.2-0.1,0.5-0.1,0.7,0l3.8,2.2
		c0.2,0.1,0.4,0.4,0.4,0.6s-0.1,0.5-0.4,0.6l-3.8,2.2C6.7,10.8,6.6,10.9,6.4,10.9z M7.1,7V9l1.7-1L7.1,7z"/>
</g>
</svg>
