<?xml version="1.0" encoding="utf-8"?>
<!-- Generator: Adobe Illustrator 25.1.0, SVG Export Plug-In . SVG Version: 6.00 Build 0)  -->
<svg version="1.1" id="Layer_1" xmlns="http://www.w3.org/2000/svg" xmlns:xlink="http://www.w3.org/1999/xlink" x="0px" y="0px"
	 viewBox="0 0 16 16" style="enable-background:new 0 0 16 16;" xml:space="preserve">
<g>
	<g>
		<path d="M12.7,12.5H8.3l-0.9,2.4H6.2l3.6-9h1.5l3.6,9h-1.2L12.7,12.5z M12.3,11.4l-1.8-4.5l-1.8,4.5H12.3z"/>
	</g>
	<g>
		<path d="M1.2,1.2h5.6v1H2.3v2.4h2.4c1.8,0,2.6,1.1,2.6,2.4c0,1.5-1,2.6-2.5,2.6H1.2V1.2z M4.7,8.6c1,0,1.6-0.6,1.6-1.6
			c0-1-0.6-1.5-1.6-1.5H2.3v3.1H4.7z"/>
	</g>
</g>
</svg>
