<?xml version="1.0" encoding="utf-8"?>
<!-- Generator: Adobe Illustrator 23.0.1, SVG Export Plug-In . SVG Version: 6.00 Build 0)  -->
<svg version="1.1" id="Layer_1" xmlns="http://www.w3.org/2000/svg" xmlns:xlink="http://www.w3.org/1999/xlink" x="0px" y="0px"
	 viewBox="0 0 16 13" style="enable-background:new 0 0 16 13;" xml:space="preserve">
<g>
	<path d="M4,11.8L4,11.8l-1,1h1.6c0.3,0,0.5-0.2,0.5-0.5v-1.6L4,11.8L4,11.8z"/>
	<path d="M13.5,2.3l-0.7,0.7c1.3,1.3,2.1,3,2.1,5c0,0.4,0,0.8-0.1,1.2h-0.4V7.9c0-0.7-0.6-1.3-1.3-1.3h-1.7c-0.3,0-0.5,0.2-0.5,0.5
		v5.3c0,0.3,0.2,0.5,0.5,0.5h1.7c0.7,0,1.3-0.6,1.3-1.3v-1.3h0.8c0.2,0,0.4-0.2,0.5-0.4c0.1-0.6,0.2-1.2,0.2-1.8
		C15.9,5.8,15,3.8,13.5,2.3z M13.5,11.5c0,0.2-0.2,0.3-0.3,0.3H12V7.5h1.2c0.2,0,0.3,0.1,0.3,0.3V11.5z"/>
	<path d="M12.7,0.5L12,1.2c-1.2-0.7-2.5-1.1-4-1.1C3.6,0.1,0.1,3.7,0.1,8c0,0.6,0.1,1.2,0.2,1.8c0.1,0.2,0.2,0.4,0.5,0.4h0.8v1.3
		c0,0,0,0.1,0,0.1L1.1,12L2,12.9L13.5,1.3L12.7,0.5z M2.5,10.6c0-1,0-2.8,0-2.8c0-0.2,0.2-0.3,0.3-0.3H4v1.6L2.5,10.6z M5.1,8.1V7
		c0-0.3-0.2-0.5-0.5-0.5H2.9c-0.7,0-1.3,0.6-1.3,1.3v1.3H1.2C1.1,8.8,1.1,8.4,1.1,8c0-3.8,3.1-6.9,6.9-6.9c1.2,0,2.3,0.3,3.3,0.8
		L5.1,8.1z"/>
</g>
</svg>
