<?xml version="1.0" encoding="utf-8"?>
<!-- Generator: Adobe Illustrator 23.0.1, SVG Export Plug-In . SVG Version: 6.00 Build 0)  -->
<svg version="1.1" id="Layer_1" xmlns="http://www.w3.org/2000/svg" xmlns:xlink="http://www.w3.org/1999/xlink" x="0px" y="0px"
	 viewBox="0 0 16 13" style="enable-background:new 0 0 16 13;" xml:space="preserve">
<g>
	<path d="M14.9,12.4H1.1c-0.3,0-0.5-0.2-0.5-0.5V1.1c0-0.3,0.2-0.5,0.5-0.5h13.9c0.3,0,0.5,0.2,0.5,0.5v10.7
		C15.4,12.1,15.2,12.4,14.9,12.4z M1.6,11.4h12.9V1.6H1.6V11.4z"/>
</g>
<g>
	<path d="M6.4,9C6.3,9,6.3,9,6.2,8.9C6,8.8,5.9,8.6,5.9,8.5v-4c0-0.2,0.1-0.3,0.2-0.4C6.3,4,6.5,4,6.7,4.1l3.6,2
		c0.2,0.1,0.3,0.3,0.3,0.4s-0.1,0.3-0.3,0.4l-3.6,2C6.6,9,6.5,9,6.4,9z M6.9,5.4l0,2.3L9,6.5L6.9,5.4z"/>
</g>
</svg>
