<?xml version="1.0" encoding="utf-8"?>
<!-- Generator: Adobe Illustrator 23.0.1, SVG Export Plug-In . SVG Version: 6.00 Build 0)  -->
<svg version="1.1" id="Layer_1" xmlns="http://www.w3.org/2000/svg" xmlns:xlink="http://www.w3.org/1999/xlink" x="0px" y="0px"
	 viewBox="0 0 16 16" style="enable-background:new 0 0 16 16;" xml:space="preserve">
<path d="M8,1.6c-4.4,0-7.9,3.6-7.9,7.9c0,0.6,0.1,1.2,0.2,1.8c0.1,0.2,0.2,0.4,0.5,0.4h0.8V13c0,0.7,0.6,1.3,1.3,1.3h1.7
	c0.3,0,0.5-0.2,0.5-0.5V8.5C5.1,8.2,4.8,8,4.6,8H2.9C2.1,8,1.5,8.6,1.5,9.4v1.3H1.2c-0.1-0.4-0.1-0.8-0.1-1.2c0-3.8,3.1-6.9,6.9-6.9
	s6.9,3.1,6.9,6.9c0,0.4,0,0.8-0.1,1.2h-0.4V9.4c0-0.7-0.6-1.3-1.3-1.3h-1.7c-0.3,0-0.5,0.2-0.5,0.5v5.3c0,0.3,0.2,0.5,0.5,0.5h1.7
	c0.7,0,1.3-0.6,1.3-1.3v-1.3h0.8c0.2,0,0.4-0.2,0.5-0.4c0.1-0.6,0.2-1.2,0.2-1.8C15.9,5.2,12.4,1.6,8,1.6z M2.5,9.4
	C2.5,9.2,2.7,9,2.9,9H4v4.3H2.9c-0.2,0-0.3-0.1-0.3-0.3C2.5,13,2.5,9.4,2.5,9.4z M13.5,13c0,0.2-0.1,0.3-0.3,0.3h-1.2V9h1.2
	c0.2,0,0.3,0.1,0.3,0.3V13z"/>
</svg>
