<?xml version="1.0" encoding="utf-8"?>
<!-- Generator: Adobe Illustrator 23.0.1, SVG Export Plug-In . SVG Version: 6.00 Build 0)  -->
<svg version="1.1" id="Layer_1" xmlns="http://www.w3.org/2000/svg" xmlns:xlink="http://www.w3.org/1999/xlink" x="0px" y="0px"
	 viewBox="0 0 16 13" style="enable-background:new 0 0 16 13;" xml:space="preserve">
<path d="M8,0.14c-4.36,0-7.91,3.55-7.91,7.91c0,0.6,0.07,1.19,0.2,1.77c0.05,0.23,0.25,0.39,0.49,0.39h0.77v1.26
	c0,0.74,0.6,1.34,1.34,1.34h1.67c0.28,0,0.5-0.22,0.5-0.5V7.02c0-0.28-0.22-0.5-0.5-0.5H2.88c-0.74,0-1.34,0.6-1.34,1.34v1.34H1.18
	c-0.06-0.38-0.1-0.77-0.1-1.16c0-3.81,3.1-6.91,6.91-6.91c3.81,0,6.91,3.1,6.91,6.91c0,0.39-0.03,0.78-0.1,1.16h-0.36V7.87
	c0-0.74-0.6-1.34-1.34-1.34h-1.67c-0.28,0-0.5,0.22-0.5,0.5v5.28c0,0.28,0.22,0.5,0.5,0.5h1.67c0.74,0,1.34-0.6,1.34-1.34v-1.26
	h0.77c0.23,0,0.44-0.16,0.49-0.39c0.13-0.58,0.2-1.17,0.2-1.77C15.91,3.69,12.36,0.14,8,0.14z M2.54,7.87
	c0-0.19,0.15-0.34,0.34-0.34h1.17v4.28H2.88c-0.19,0-0.34-0.15-0.34-0.34V7.87z M13.46,11.46c0,0.19-0.15,0.34-0.34,0.34h-1.17V7.53
	h1.17c0.19,0,0.34,0.15,0.34,0.34V11.46z"/>
</svg>
