<?xml version="1.0" encoding="utf-8"?>
<!-- Generator: Adobe Illustrator 23.0.1, SVG Export Plug-In . SVG Version: 6.00 Build 0)  -->
<svg version="1.1" id="Layer_1" xmlns="http://www.w3.org/2000/svg" xmlns:xlink="http://www.w3.org/1999/xlink" x="0px" y="0px"
	 viewBox="0 0 16 16" style="enable-background:new 0 0 16 16;" xml:space="preserve">
<style type="text/css">
	.st0{fill:none;}
	.st1{display:none;fill:#FF5555;}
</style>
<g>
	<path class="st0" d="M4.1,3.8C4.4,3.4,4.7,3,5.4,2.8C6.6,2.5,8,2.3,9.3,2.1c0.3,0,0.6,0,0.8,0C10,1.9,9.8,1.8,9.6,1.7
		C9.4,1.5,9,1.5,8.7,1.5c-0.2,0-0.4,0-0.6,0.1L7.5,1.7C6.5,2,5.7,2.2,4.5,2.4C3.7,2.6,2.3,4.2,2.3,5c0,0.2,0,0.5,0.2,0.6
		c0.1,0.1,0.2,0.1,0.4,0.1c0.1-0.5,0.4-1.1,1.1-1.8L4.1,3.8z"/>
	<path class="st0" d="M10.6,3.7c-0.4-0.4-0.8-0.5-1.2-0.4C8.3,3.4,6.9,3.7,5.7,4C5.4,4.1,5.3,4.2,5,4.6L4.8,4.7
		C4.5,5.1,4.3,5.3,4.2,5.5"/>
	<path d="M14.2,6.6c-0.7-1.1-1.3-2-1.8-2.7c-0.1-0.3-0.6-2.2-2-3.1C9.6,0.4,8.8,0.3,7.9,0.5L7.3,0.7c-1,0.3-1.8,0.5-3,0.7
		C3.1,1.7,1.2,3.7,1.1,5.1c0,0.7,0.2,1.3,0.7,1.6C2.2,7,2.6,7.1,3.1,7.1c0,0,0,0,0.1,0c0,0,0,0,0,0c0.5,0.6,1.6,0.6,2.2,0.3
		C5.5,7.2,5.7,7.1,5.8,7c0.3-0.2,0.5-0.4,0.9-0.6c0.4-0.2,1-0.2,1.2-0.2c0.8,0.6,1.2,1.5,1.2,2.2c0.1,0.5,0,1-0.3,1.2
		c-0.8,0.8-2.1,1.4-2.7,1c-0.4-0.3-0.9-0.9-1.1-1.1c-0.5-1-1.3-1.5-2.3-1.4c-0.8,0-1.4,0.5-1.6,1c-0.3,1,0.3,3.1,1.1,4l0.2,0.2
		c1,1.1,1.9,2,2.7,2.1c0.6,0,1.1,0.1,1.6,0.1c4.3,0,6.3-1.6,7.1-3C15.4,10.4,14.8,7.6,14.2,6.6z M2.9,5.9c-0.1,0-0.3-0.1-0.4-0.1
		C2.3,5.6,2.3,5.3,2.3,5.1c0-0.8,1.5-2.4,2.2-2.5c1.2-0.3,2-0.5,3.1-0.7l0.6-0.2c0.2,0,0.4-0.1,0.6-0.1c0.3,0,0.6,0.1,0.9,0.3
		C9.9,2,10,2.1,10.2,2.2c-0.3,0-0.5-0.1-0.8,0C8.1,2.4,6.7,2.7,5.5,3c-0.6,0.2-1,0.5-1.3,0.9L4,4.1C3.3,4.8,3,5.4,2.9,5.9z M13,12
		c-1.1,1.9-3.7,2.7-7.6,2.4c-0.5,0-1.5-1.2-1.9-1.7l-0.2-0.2c-0.5-0.6-1-2.3-0.8-2.8c0-0.1,0.3-0.2,0.6-0.2c0,0,0.1,0,0.1,0
		c0.4,0,0.7,0.3,0.9,0.8l0.1,0.1c0.1,0.1,0.7,1,1.4,1.5c1.3,0.9,3.3-0.3,4.2-1.2c0.5-0.5,0.7-1.3,0.6-2.2c-0.1-0.9-0.5-2-1.4-2.8
		C8.9,5.4,8.7,5.3,8.5,5.2C8.1,4.9,6.9,5,6.2,5.3C5.8,5.5,5.4,5.8,5.1,6C5,6.1,4.8,6.3,4.7,6.4c-0.1,0.1-0.5,0.1-0.6,0
		c0,0-0.1-0.2,0.2-0.6c0.1-0.2,0.3-0.5,0.6-0.8L5,4.7c0.3-0.4,0.4-0.5,0.7-0.6C7,3.9,8.3,3.6,9.5,3.4c0.4-0.1,0.7,0,1.2,0.4
		c0.2,0.2,0.5,0.5,0.9,1c0.4,0.6,1,1.4,1.7,2.5C13.6,7.9,14.1,10.2,13,12z"/>
</g>
<path class="st1" d="M15.1,8.4c-0.2-1-0.7-2-1.4-2.8l-2.1-2.5l-0.7-1c-0.5-0.7-1.2-1-2-0.9l-4,0.4C4.5,1.6,4.1,1.8,3.9,2L2,4.4
	C1.8,4.6,1.7,5,1.8,5.3S2.1,6,2.4,6.1C3,6.5,3.7,6.5,3.9,6.5c0,0,0.1,0,0.1,0c0,0,0,0,0,0h0c0.8,0.2,1.6,0,2.2-0.6l0,0
	C6.4,5.7,6.7,5.6,7,5.6l0.7,0c0.5,0,0.9,0.3,1,0.8l0.5,1.4c0,0.1,0,0.2,0,0.2c0,0.3,0,0.8-0.2,1.4c-0.4,0.7-1.7,1.1-1.9,1.1
	c-0.1,0-0.1,0-0.3,0.1c-0.2,0-0.4,0-0.6,0l-0.1,0c-0.3-0.1-0.5-0.3-0.6-0.6L5.1,9.3C4.7,8.5,3.8,8,2.9,8.1l-0.3,0
	C2.3,8.2,2,8.3,1.8,8.6C1.7,8.8,1.6,9.1,1.7,9.4L2.4,12c0.1,0.4,0.8,1.2,2.2,2.4c0.3,0.2,1.2,0.5,1.2,0.5c0.7,0.2,1.4,0.2,2.1,0.2
	c1.2,0,2.4-0.2,3.6-0.7c2.8-1,3.5-3.7,3.6-5.2C15.1,9,15.1,8.8,15.1,8.4z M2.3,5.2c0-0.2,0-0.4,0.1-0.5l1.9-2.3
	c0.1-0.2,0.3-0.2,0.5-0.3l4-0.4c0.5,0,0.9,0.1,1.2,0.4C9.6,1.9,9.2,1.8,8.7,1.9L6,2.2C5.1,2.3,4.3,2.7,3.8,3.5L2.9,4.7
	c-0.2,0.3-0.2,0.7,0,1c-0.1,0-0.2-0.1-0.4-0.2C2.5,5.6,2.3,5.4,2.3,5.2z M14.6,9.2c-0.2,1.7-0.8,3.9-3.2,4.7
	c-1.8,0.7-3.6,0.8-5.4,0.4C5.6,14.3,5.1,14.1,5,14c-1.3-1.2-2-2-2-2.1L2.3,9.3l0,0c0-0.1,0-0.3,0.1-0.4c0.1-0.1,0.2-0.2,0.3-0.2
	l0.3,0c0.1,0,0.1,0,0.2,0c0.6,0,1.2,0.3,1.5,0.9l0.3,0.6c0.2,0.4,0.5,0.7,1,0.9L6,11c0.3,0.1,0.6,0.1,1,0c0.1,0,0.2,0,0.2,0
	c0.3,0,1.9-0.4,2.4-1.4c0.4-0.7,0.3-1.4,0.3-1.7c0-0.1,0-0.2-0.1-0.3L9.2,6.1C9,5.5,8.4,5,7.7,5L7,5c-0.5,0-0.9,0.1-1.2,0.5l0,0
	C5.3,5.9,4.7,6,4.1,5.9c-0.2,0-0.4-0.2-0.5-0.3C3.3,5.3,3.4,5.1,3.4,5l0.8-1.2c0.4-0.6,1-1,1.8-1.1l2.7-0.3c0.7-0.1,1.2,0.2,2.1,0.9
	c0,0,0.1,0.1,0.2,0.1l2.2,2.5c0.7,0.8,1.1,1.7,1.3,2.6C14.6,8.9,14.6,9.1,14.6,9.2z"/>
</svg>
