<?xml version="1.0" encoding="utf-8"?>
<!-- Generator: Adobe Illustrator 23.0.1, SVG Export Plug-In . SVG Version: 6.00 Build 0)  -->
<svg version="1.1" id="Layer_1" xmlns="http://www.w3.org/2000/svg" xmlns:xlink="http://www.w3.org/1999/xlink" x="0px" y="0px"
	 viewBox="0 0 16 16" style="enable-background:new 0 0 16 16;" xml:space="preserve">
<g>
	<g>
		<path d="M8.8,14.7c-0.2,0-0.3-0.1-0.4-0.2l-3.5-3.6H1.3c-0.3,0-0.6-0.3-0.6-0.6V5.7c0-0.3,0.3-0.6,0.6-0.6h3.6l3.5-3.6
			C8.5,1.3,8.8,1.2,9,1.3c0.2,0.1,0.4,0.3,0.4,0.6v12.2c0,0.2-0.1,0.5-0.4,0.6C9,14.7,8.9,14.7,8.8,14.7z M1.9,9.7h3.3
			c0.2,0,0.3,0.1,0.4,0.2l2.6,2.7V3.4L5.6,6.1C5.5,6.2,5.3,6.3,5.1,6.3H1.9V9.7z"/>
	</g>
	<g>
		<rect x="10.6" y="7.7" transform="matrix(0.7071 -0.7071 0.7071 0.7071 -2.0284 11.6191)" width="4.9" height="1.2"/>
	</g>
	<g>
		<rect x="12.4" y="5.8" transform="matrix(0.7071 -0.7071 0.7071 0.7071 -2.0284 11.6191)" width="1.2" height="4.9"/>
	</g>
</g>
</svg>
