<?xml version="1.0" encoding="utf-8"?>
<!-- Generator: Adobe Illustrator 23.0.1, SVG Export Plug-In . SVG Version: 6.00 Build 0)  -->
<svg version="1.1" id="Layer_1" xmlns="http://www.w3.org/2000/svg" xmlns:xlink="http://www.w3.org/1999/xlink" x="0px" y="0px"
	 viewBox="0 0 300 36" enable-background="new 0 0 300 36" xml:space="preserve">
<g>
	<path fill="#1E1E1E" d="M146.9,29l3.1-7.9l3.1,7.9H146.9z M148.6,19l-6.4,16.3h2.4l1.6-4.2h7.8l1.6,4.2h2.4L151.5,19H148.6z
		 M171.1,26.7h-9v-5.6h9.2c2,0,3.1,0.8,3.1,2.6C174.5,25.4,173.4,26.7,171.1,26.7 M176.8,23.3c0-2.8-2.1-4.3-5.1-4.3h-11.9v16.3h2.3
		v-6.5h10.2c1.3,0,2.1,0.3,2.1,1.6v4.9h2.3v-4.8c0-1.9-0.7-3-2.7-3.1C175.7,26.8,176.8,25.4,176.8,23.3 M240.7,19h-2.3v7.1H267V24
		h-26.2v-5H240.7z M216.4,26.1h-13.2V19h-2.3v16.3h2.3v-7.1h13.2v7.1h2.3V19h-2.3V26.1z M240.7,28.2h-2.3v7.1H267v-2.1h-26.2v-5
		H240.7z M178.4,21.1h5.9v14.2h2.3V21.1h5.7V19h-13.9V21.1z M225.5,29l3.1-7.9l3.1,7.9H225.5z M227.1,19l-6.4,16.3h2.4l1.6-4.2h7.8
		l1.6,4.2h2.4L230.1,19H227.1z M102.1,19.1h-2.3v16.3h2.3V19.1z M44.6,35.3V21.2h9v-2.1H33.1v2.1h9.2v14.2h2.3V35.3z M97.5,24H71.3
		v-5H69v7.1h28.6L97.5,24L97.5,24z M121.4,19.1h-3.1v13.5l-10.9-13.5h-3.1v16.3h2.3V21.8l10.8,13.5h3.1V21.8l10.9,13.5h3.1V19.1
		h-2.3v13.5L121.4,19.1z M59.4,21.2l3.1,7.9h-6.1L59.4,21.2z M55.5,31.2h7.8l1.6,4.2h2.4l-6.4-16.3h-3l-6.4,16.3h2.4L55.5,31.2z
		 M97.5,33.2H71.3v-5H69v7.1h28.5V33.2z"/>
	<path fill="#1E1E1E" d="M134.5,10.1h-4.8V8h4.7c4.1,0,6.2-2.4,6.2-6V1h-2.3v0.8c0,2.7-1.3,4.2-3.7,4.2h-4.8V1h-2.3v16.3h2.3v-5h5
		c2.4,0,3.7,1.5,3.7,4.2v0.8h2.3v-1C140.6,12.5,138.6,10.1,134.5,10.1 M155,11.4V0.9h-2.3v10.2c0,2.7-1.3,4.2-3.7,4.2h-0.2
		c-2.4,0-3.7-1.5-3.7-4.2V0.9h-2.3v10.5c0,3.6,2,6,6.2,6C152.9,17.4,155,14.9,155,11.4 M209.6,17.2h2.3V0.9h-2.3V17.2z M277.9,14.4
		l-7.6-13.5H267v16.3h2.3V3.7l7.6,13.5h3.3V0.9h-2.3V14.4z M284.6,15.1V9.9h13.1V7.8h-13.1V3h14.5V0.9h-16.8v16.3h17v-2.1
		C299.3,15.1,284.6,15.1,284.6,15.1z M262.4,5.9h-25.6V3h25.6V5.9z M264.8,0.9h-30.2V8h30.2V0.9L264.8,0.9z M262.4,15.1h-25.6v-2.9
		h25.6V15.1z M264.8,10.1h-30.2v7.1h30.2V10.1L264.8,10.1z M232.2,17.2V0.9h-2.3V8h-13.2V0.9h-2.3v16.3h2.3v-7.1h13.2v7.1
		C229.9,17.2,232.2,17.2,232.2,17.2z M170.4,17.2V0.9H168v13.5l-7.6-13.5h-3.3v16.3h2.3V3.7l7.6,13.5H170.4L170.4,17.2z M198,3h9
		V0.9h-20.5V3h9.2v14.2h2.3V3z M179.2,15.3H179c-2.4,0-4.2-1.2-4.2-3.4h-2.3c0.1,3.5,2.6,5.5,6.5,5.5c3.6,0,5.9-1.8,5.9-4.6
		c0-2.7-1.6-4.1-4.4-4.7l-2.6-0.5c-1.4-0.3-2.2-1-2.2-2.3c0-1.4,1.4-2.5,3.4-2.5h0.2c2,0,3.5,1.2,3.6,3h2.3c-0.1-3.2-2.4-5.1-6-5.1
		c-3.5,0-5.8,2.1-5.8,4.6c0,2.6,1.5,4,4.1,4.6l2.6,0.5c1.7,0.3,2.6,1.1,2.6,2.4C182.6,14.2,181.4,15.3,179.2,15.3 M69.7,0.7h-2.3V17
		h2.3V0.7z M12.2,16.9V2.8h9V0.7H0.7v2.1h9.2V17L12.2,16.9L12.2,16.9z M65.2,5.6H38.9v-5h-2.3v7.1h28.6L65.2,5.6L65.2,5.6z M89,0.7
		h-3.1v13.5L75.1,0.7H72V17h2.3V3.5L85.2,17h3.1V3.5L99.2,17h3.1V0.7H100v13.5L89,0.7z M27,2.8l3.1,7.9H24L27,2.8z M23.1,12.7h7.8
		l1.6,4.2h2.4L28.5,0.7h-3L19.1,17h2.4L23.1,12.7z M65.1,14.8H38.9v-5h-2.3v7.1h28.6v-2.1H65.1z M111.9,2.8l3.1,7.9h-6.1L111.9,2.8z
		 M108.1,12.7h7.8l1.6,4.2h2.4l-6.4-16.3h-3l-6.4,16.3h2.4L108.1,12.7z"/>
</g>
</svg>
