<?xml version="1.0" standalone="no"?>
<!DOCTYPE svg PUBLIC "-//W3C//DTD SVG 20010904//EN"
 "http://www.w3.org/TR/2001/REC-SVG-20010904/DTD/svg10.dtd">
<svg version="1.0" xmlns="http://www.w3.org/2000/svg"
 width="1000.000000pt" height="1000.000000pt" viewBox="0 0 1000.000000 1000.000000"
 preserveAspectRatio="xMidYMid meet">
<metadata>
Created by potrace 1.11, written by Peter Selinger 2001-2013
</metadata>
<g transform="translate(0.000000,1000.000000) scale(0.100000,-0.100000)"
fill="#000000" stroke="none">
<path d="M1900 5000 l0 -3790 540 0 540 0 0 1160 0 1160 1219 0 c774 0 1257
-4 1322 -10 312 -32 575 -120 799 -269 118 -78 289 -251 373 -377 156 -234
260 -536 301 -869 23 -183 25 -239 26 -527 l0 -268 541 0 541 0 -5 427 c-5
453 -12 538 -63 793 -86 431 -264 830 -508 1135 -78 97 -245 265 -341 342
-339 273 -773 460 -1260 542 -296 50 -330 51 -1680 51 l-1265 0 0 495 0 495
1068 0 c1101 1 1408 7 1628 35 568 71 1044 260 1429 565 384 304 684 790 819
1325 76 304 97 503 103 983 l5 392 -541 0 -541 0 0 -167 c0 -249 -17 -536 -40
-686 -117 -761 -512 -1239 -1160 -1402 -239 -61 -184 -58 -1532 -62 l-1238 -4
0 1161 0 1160 -540 0 -540 0 0 -3790z"/>
</g>
</svg>
